<?xml version="1.0" encoding="UTF-8"?>
<svg version="1.1" xmlns="http://www.w3.org/2000/svg" width="225" height="225">
<path d="M0 0 C74.25 0 148.5 0 225 0 C225 74.25 225 148.5 225 225 C150.75 225 76.5 225 0 225 C0 150.75 0 76.5 0 0 Z " fill="#FBFBFB" transform="translate(0,0)"/>
<path d="M0 0 C74.25 0 148.5 0 225 0 C225 74.25 225 148.5 225 225 C150.75 225 76.5 225 0 225 C0 150.75 0 76.5 0 0 Z M24.1875 24.125 C23.64480469 24.64320312 23.10210937 25.16140625 22.54296875 25.6953125 C17.17586665 33.71199666 17.5693538 42.72077024 17.61181641 52.03149414 C17.60774491 53.53706746 17.60239981 55.04263778 17.59588623 56.54820251 C17.58227658 60.61426809 17.58748452 64.68010384 17.59702349 68.74617314 C17.60465177 73.01319676 17.59756584 77.28020151 17.59286499 81.54722595 C17.58741723 88.70998648 17.5945739 95.872654 17.60888672 103.03540039 C17.6252176 111.30328667 17.61991763 119.57095104 17.6034075 127.83883196 C17.58977212 134.95332388 17.58788281 142.06774919 17.59572351 149.18224996 C17.60038796 153.42456189 17.60105868 157.66676965 17.59111404 161.90907478 C17.58241647 165.89747391 17.58851688 169.88558817 17.60579681 173.87395668 C17.60974655 175.33318866 17.60865367 176.79244482 17.60200882 178.25166702 C17.38355476 190.40049231 17.38355476 190.40049231 22.6484375 201.0234375 C23.50308594 201.69246094 23.50308594 201.69246094 24.375 202.375 C24.93960937 202.83648437 25.50421875 203.29796875 26.0859375 203.7734375 C30.52759258 206.61972259 34.30724214 207.25134636 39.54573059 207.26069641 C40.18955946 207.26452196 40.83338833 207.26834751 41.49672717 207.27228898 C43.64609542 207.28257706 45.79519444 207.27863489 47.94458008 207.2746582 C49.4889704 207.27900708 51.03335857 207.28419082 52.57774353 207.29014587 C56.76795795 207.30353015 60.95808213 207.30411504 65.14831376 207.30158257 C68.64964545 207.30051219 72.15095893 207.3053981 75.65228671 207.310188 C83.91574733 207.32128181 92.17916249 207.32172169 100.44262695 207.31567383 C108.95808277 207.30963716 117.47337322 207.32193752 125.98880082 207.3432439 C133.30702351 207.36087928 140.62519366 207.36685809 147.9434368 207.36360615 C152.31101361 207.36179579 156.67847253 207.3644045 161.04603004 207.37832069 C165.15583273 207.3909255 169.26537849 207.38892997 173.37517738 207.37590981 C174.87956327 207.37355001 176.38396739 207.37625726 177.88833237 207.38453293 C190.18953564 207.62767016 190.18953564 207.62767016 201.0234375 202.38671875 C201.46945313 201.82597656 201.91546875 201.26523438 202.375 200.6875 C202.83648437 200.13449219 203.29796875 199.58148438 203.7734375 199.01171875 C206.63722382 194.31474437 207.2516176 189.7542301 207.26742554 184.33401489 C207.27422221 183.36698995 207.27422221 183.36698995 207.28115618 182.38042915 C207.29375092 180.23417673 207.29218306 178.08817967 207.29052734 175.94189453 C207.29651565 174.39735592 207.30332189 172.85282029 207.31088257 171.30828857 C207.32851809 167.12227373 207.33323688 162.9363407 207.33451414 158.7502923 C207.33593757 156.13268214 207.34021078 153.51509266 207.34550858 150.89748764 C207.36400004 141.75895623 207.37218021 132.62048309 207.37060547 123.48193359 C207.36940398 114.97379998 207.39050992 106.46592001 207.4220928 97.95785058 C207.44827222 90.64385257 207.45897208 83.32993734 207.45769465 76.01589286 C207.45718555 71.65163935 207.46284005 67.28761139 207.48405075 62.92340469 C207.50346159 58.81763812 207.50353841 54.71231163 207.48901749 50.60652924 C207.48693187 49.10374939 207.49161557 47.60094178 207.5037384 46.09820938 C207.63912777 33.8651893 207.63912777 33.8651893 201.62347984 23.49391365 C196.51525658 18.82737337 191.17914946 17.75156367 184.44790649 17.73930359 C183.14702591 17.73221878 181.84614532 17.72513397 180.50584412 17.71783447 C179.07632411 17.72012799 177.64680444 17.72263765 176.21728516 17.7253418 C174.70230356 17.72099156 173.18732417 17.71580737 171.67234802 17.70985413 C167.56690032 17.69648571 163.4615448 17.6958831 159.35607958 17.69841743 C155.92428677 17.6994887 152.49251249 17.69459971 149.06072366 17.689812 C140.96169224 17.67872407 132.86270721 17.67827526 124.76367188 17.68432617 C116.41917311 17.6903648 108.07484301 17.67805615 99.73037302 17.6567561 C92.55650244 17.63912003 85.38268545 17.63314194 78.208794 17.63639385 C73.92842164 17.6382038 69.64816958 17.63559936 65.36781693 17.62167931 C61.34089756 17.60907305 57.3142404 17.61107136 53.28732491 17.62409019 C51.81357674 17.62644953 50.33980996 17.62374441 48.86608315 17.61546707 C35.41960973 17.424041 35.41960973 17.424041 24.1875 24.125 Z " fill="#000000" transform="translate(0,0)"/>
<path d="M0 0 C13.86 0 27.72 0 42 0 C46.3125 17.8125 46.3125 17.8125 47.65356445 23.36254883 C49.65183625 31.60876259 51.68304705 39.8359924 54 48 C55.9275736 44.55801824 56.86486295 41.09794036 57.83984375 37.28515625 C58.09127892 36.30777748 58.09127892 36.30777748 58.34779358 35.31065369 C58.70201076 33.93022233 59.05404979 32.54923048 59.40405273 31.16772461 C59.92811808 29.09952531 60.45851859 27.03304094 60.99023438 24.96679688 C63.11455157 16.66730658 65.0726157 8.35199865 67 0 C80.86 0 94.72 0 109 0 C112.02926154 44.47506715 112.02926154 44.47506715 113.05865479 62.99868774 C113.14305629 64.51437641 113.22889925 66.02998565 113.31634521 67.54550171 C113.43830838 69.67202893 113.55402785 71.79881069 113.66796875 73.92578125 C113.76501099 75.69562378 113.76501099 75.69562378 113.86401367 77.5012207 C114.07046541 84.33117795 114 91.16692322 114 98 C103.11 98 92.22 98 81 98 C80.67 82.49 80.34 66.98 80 51 C79.34 51 78.68 51 78 51 C77.88213135 51.96043213 77.7642627 52.92086426 77.64282227 53.91040039 C76.98473966 58.49971932 75.85779753 62.94464043 74.71484375 67.43359375 C74.49429825 68.31153091 74.27375275 69.18946808 74.04652405 70.0940094 C73.34684867 72.87602505 72.64225411 75.65676707 71.9375 78.4375 C71.45996004 80.33260007 70.98274313 82.22778157 70.50585938 84.12304688 C69.34157496 88.74981191 68.17063596 93.37481946 67 98 C58.75 98 50.5 98 42 98 C41.45730469 95.81761719 40.91460937 93.63523437 40.35546875 91.38671875 C39.81954704 89.23519715 39.28320577 87.08378054 38.74682617 84.93237305 C38.37887608 83.45559386 38.01135114 81.97870866 37.64428711 80.50170898 C37.11167803 78.35892022 36.57769515 76.21648007 36.04296875 74.07421875 C35.78216019 73.02752518 35.78216019 73.02752518 35.51608276 71.95968628 C34.27599737 67.01489049 32.93839496 62.10410623 31.5090332 57.21020508 C31 55 31 55 31 51 C30.34 51 29.68 51 29 51 C29.00523682 51.57105469 29.01047363 52.14210937 29.01586914 52.73046875 C29.13461161 67.85735753 28.71533111 82.88863031 28 98 C17.11 98 6.22 98 -5 98 C-5 83.06533385 -5 83.06533385 -4.54101562 75.72143555 C-4.49224777 74.8904837 -4.44347992 74.05953186 -4.39323425 73.20339966 C-4.23452674 70.51427639 -4.07045723 67.82551126 -3.90625 65.13671875 C-3.79381347 63.24959779 -3.68171812 61.36245647 -3.56994629 59.47529602 C-3.27741769 54.55151968 -2.98031002 49.62803038 -2.68218994 44.70458984 C-2.3240708 38.77408884 -1.97174242 32.84324124 -1.61842346 26.9124527 C-1.08334207 17.94136448 -0.54098815 8.97074273 0 0 Z " fill="#010101" transform="translate(58,62)"/>
<path d="M0 0 C11.22 0 22.44 0 34 0 C34 0.33 34 0.66 34 1 C33.16597656 1.20753906 32.33195312 1.41507812 31.47265625 1.62890625 C19.88666498 4.80078702 11.10397385 10.38920608 5 21 C3.37327993 25.26893698 2.1026771 29.56874483 1 34 C0.67 34 0.34 34 0 34 C0 22.78 0 11.56 0 0 Z " fill="#F9F9F9" transform="translate(0,0)"/>
<path d="M0 0 C0.33 0 0.66 0 1 0 C1 10.89 1 21.78 1 33 C-9.56 33 -20.12 33 -31 33 C-31 32.67 -31 32.34 -31 32 C-30.16597656 31.79246094 -29.33195313 31.58492187 -28.47265625 31.37109375 C-17.76031144 28.43838996 -10.17902554 24.124241 -4.21875 14.5546875 C-2.00920998 9.9231517 -0.96781035 5.01733262 0 0 Z " fill="#F8F8F8" transform="translate(224,192)"/>
<path d="M0 0 C0.33 0 0.66 0 1 0 C1.14695313 0.76183594 1.29390625 1.52367187 1.4453125 2.30859375 C3.78795206 13.09281378 7.7791941 20.0407342 16.76171875 26.5625 C21.24003303 29.43862506 25.70309568 31.19743874 31 32 C31 32.33 31 32.66 31 33 C20.77 33 10.54 33 0 33 C0 22.11 0 11.22 0 0 Z " fill="#F8F8F8" transform="translate(0,192)"/>
<path d="M0 0 C10.56 0 21.12 0 32 0 C32 10.23 32 20.46 32 31 C31.67 31 31.34 31 31 31 C30.85304687 30.38253906 30.70609375 29.76507812 30.5546875 29.12890625 C28.045063 19.6529103 23.41022359 11.40892812 15 6 C10.12761777 3.61726763 5.3386491 1.95943694 0 1 C0 0.67 0 0.34 0 0 Z " fill="#F9F9F9" transform="translate(193,0)"/>
</svg>
